<svg xmlns="http://www.w3.org/2000/svg" width="256" height="256"><path fill-opacity=".016" d="M0 128.004v128.004l128.25-.254 128.25-.254.254-127.75L257.008 0H0v128.004m.485.496c0 70.4.119 99.053.265 63.672.146-35.38.146-92.98 0-128C.604 29.153.485 58.1.485 128.5" fill="#212121" fill-rule="evenodd"/><path fill-opacity=".227" d="M101.524 36.063c-5.4 2.693-10.108 7.446-12.718 12.838-1.689 3.488-2.272 6.893-2.618 15.293L85.743 75H67.882c-15.207 0-18.613.286-22.927 1.925-7.749 2.944-13.361 8.123-17.155 15.83l-3.3 6.703v96.084l3.292 6.687c3.873 7.868 9.28 12.906 16.916 15.763C49.914 219.94 52.42 220 128 220s78.086-.06 83.292-2.008c7.636-2.857 13.043-7.895 16.916-15.763l3.292-6.687V99.458l-3.3-6.703c-3.794-7.707-9.406-12.886-17.155-15.83-4.314-1.639-7.72-1.925-22.927-1.925h-17.861l-.474-10.75c-.535-12.134-1.826-16.078-7.215-22.043-6.874-7.608-9.449-8.213-34.807-8.167-20.148.036-22.638.228-26.237 2.023M109.2 56.2c-.752.752-1.2 4.489-1.2 10V75h40v-8.8c0-5.511-.448-9.248-1.2-10-1.688-1.688-35.912-1.688-37.6 0M51.5 97.161c-5.624 3.092-5.454 1.535-5.478 50.155-.014 28.868.344 45.5 1.008 46.739C49.715 199.073 48.525 199 128 199s78.285.073 80.97-4.945c.664-1.239 1.022-17.871 1.008-46.739-.024-48.803.154-47.225-5.662-50.199-3.06-1.565-149.967-1.523-152.816.044m65.363 15.347c-2.55.818-6.825 2.988-9.5 4.823-21.114 14.485-21.11 46.022.009 60.04 18.597 12.344 41.925 6.32 52.738-13.619 3.211-5.921 3.39-6.781 3.39-16.252 0-8.185-.398-10.862-2.194-14.751-3.31-7.168-11.278-15.014-18.584-18.299-7.599-3.419-18.663-4.249-25.859-1.942m4.542 21.349c-10.27 4.782-11.414 20.266-1.931 26.127 4.587 2.835 12.178 2.719 16.628-.254 15.168-10.132 1.849-33.578-14.697-25.873" fill="#212121" fill-rule="evenodd"/><path fill-opacity=".773" d="M103.303 35.645c-4.726 1.674-11.312 7.595-13.963 12.553-1.31 2.45-1.866 6.31-2.155 14.962l-.39 11.659-19.148.358c-16.925.316-19.683.604-23.769 2.478-6.324 2.9-12.506 8.718-15.706 14.782L25.5 97.5v100l2.661 5.04c3.418 6.476 10.128 12.636 16.398 15.054 4.709 1.816 8.63 1.906 83.441 1.906s78.732-.09 83.441-1.906c6.27-2.418 12.98-8.578 16.398-15.054l2.661-5.04v-100l-2.672-5.063c-3.2-6.064-9.382-11.882-15.706-14.782-4.086-1.874-6.844-2.162-23.769-2.478l-19.148-.358-.39-11.659c-.439-13.146-1.39-15.809-7.904-22.131-6.433-6.243-10.262-7.041-33.339-6.95-15.048.059-21.122.451-24.269 1.566M111 54.661c-3.156 1.197-4 3.736-4 12.03V75h42v-8.309c0-12.513.576-12.15-19.667-12.395-9.258-.112-17.508.052-18.333.365M48.766 98.918l-3.266 2.918v91.328l3.266 2.918L52.032 199h151.936l3.266-2.918 3.266-2.918v-91.328l-3.266-2.918L203.968 96H52.032l-3.266 2.918m70.618 13.443c-10.303 2.603-20.256 10.849-24.646 20.419-1.75 3.815-2.172 6.638-2.201 14.72-.032 9.067.227 10.498 2.776 15.34 3.95 7.502 9.632 13.298 16.393 16.724 5.316 2.694 6.661 2.936 16.294 2.936 11.18 0 14.663-1.106 22.666-7.199 7.207-5.487 13.334-18.539 13.334-28.406 0-5.824-3.664-16.167-7.512-21.207-8.549-11.196-23.823-16.682-37.104-13.327m1.027 21.53c-7.674 4.679-10.06 12.247-6.254 19.835 2.909 5.799 6.339 8.361 11.979 8.949 9.255.964 16.864-6.147 16.864-15.762 0-11.201-13.146-18.78-22.589-13.022" fill="#212121" fill-rule="evenodd"/><path fill-opacity=".955" d="M104.183 35.902c-6.028 2.082-11.364 6.725-14.48 12.598-1.723 3.247-2.196 6.212-2.518 15.75L86.789 76h-38.47l-6.154 3.076C35.315 82.499 30.204 87.988 27.339 95c-1.698 4.155-1.839 8.215-1.839 53 0 47.204.056 48.622 2.106 53.051 3.116 6.736 7.771 11.482 14.616 14.902L48.319 219h159.362l6.097-3.047c6.845-3.42 11.5-8.166 14.616-14.902 2.05-4.429 2.106-5.847 2.106-53.051 0-44.785-.141-48.845-1.839-53-2.865-7.012-7.976-12.501-14.826-15.924L207.681 76h-38.434l-.444-11.75c-.51-13.479-1.981-17.467-8.671-23.512-6.261-5.657-11.539-6.743-32.564-6.705-14.875.027-19.008.357-23.385 1.869m5.04 19.655c-2.03 1.421-2.223 2.375-2.223 11V76h42v-9.443C149 53.723 149.463 54 128 54c-13.365 0-16.983.3-18.777 1.557M51.198 96.673C44.959 99.748 45 99.412 45 147.5c0 48.462-.015 48.342 6.534 51.079 5.063 2.115 147.869 2.115 152.932 0 6.549-2.737 6.534-2.617 6.534-51.079 0-48.255.054-47.823-6.357-50.865-3.093-1.468-10.948-1.633-76.794-1.612-65.7.02-73.693.192-76.651 1.65m63.694 17.622c-7.151 3.017-10.975 5.76-14.844 10.644-13.036 16.459-9.287 40.84 7.996 52.011 10.79 6.974 22.956 7.855 34.837 2.523C155.445 173.835 163 161.828 163 147.5c0-9.877-2.672-16.886-9.131-23.952-7.12-7.791-13.853-10.856-24.788-11.284-7.259-.283-9.445.029-14.189 2.031m9.473 17.682c-10.382 2.395-15.756 14.696-10.091 23.101 7.573 11.238 21.676 10.573 27.569-1.301 1.845-3.719 2.197-5.583 1.656-8.784-1.463-8.66-10.719-14.956-19.134-13.016" fill="#212121" fill-rule="evenodd"/></svg>